<?xml version="1.0" encoding="utf-8"?>
<!-- Generator: Adobe Illustrator 23.0.1, SVG Export Plug-In . SVG Version: 6.00 Build 0)  -->
<svg version="1.1" id="Layer_1" xmlns="http://www.w3.org/2000/svg" xmlns:xlink="http://www.w3.org/1999/xlink" x="0px" y="0px"
	 viewBox="0 0 56 56" style="enable-background:new 0 0 56 56;" xml:space="preserve">
<style type="text/css">
	.st0{clip-path:url(#SVGID_2_);}
	.st1{fill:url(#SVGID_3_);}
	.st2{fill:url(#SVGID_4_);}
	.st3{fill:url(#SVGID_5_);}
</style>
<g>
	<defs>
		<rect id="SVGID_1_" x="0.4" y="0.4" width="55.3" height="55.3"/>
	</defs>
	<clipPath id="SVGID_2_">
		<use xlink:href="#SVGID_1_"  style="overflow:visible;"/>
	</clipPath>
	<g class="st0">
		
			<linearGradient id="SVGID_3_" gradientUnits="userSpaceOnUse" x1="24.145" y1="15.4818" x2="55.645" y2="15.4818" gradientTransform="matrix(1 0 0 -1 0 58)">
			<stop  offset="0" style="stop-color:#FF6500"/>
			<stop  offset="1" style="stop-color:#EB2B02"/>
		</linearGradient>
		<path class="st1" d="M54.7,29.9c-0.5-0.4-1.2-0.5-1.8-0.5c-0.6,0.1-1.2,0.4-1.6,0.9L36.7,49.8L28,43.3c-0.3-0.2-0.5-0.4-0.9-0.4
			c-0.3-0.1-0.6-0.1-1-0.1c-0.3,0-0.6,0.1-0.9,0.3c-0.3,0.2-0.5,0.4-0.7,0.6c-0.2,0.3-0.3,0.6-0.4,0.9c-0.1,0.3-0.1,0.6,0,1
			c0.1,0.3,0.2,0.6,0.3,0.9c0.2,0.3,0.4,0.5,0.7,0.7l10.7,8c0.4,0.3,0.9,0.5,1.5,0.5c0.1,0,0.2,0,0.3,0c0.6-0.1,1.2-0.4,1.6-0.9
			l16-21.3c0.2-0.3,0.3-0.5,0.4-0.9c0.1-0.3,0.1-0.6,0.1-1c0-0.3-0.2-0.6-0.3-0.9C55.2,30.3,54.9,30.1,54.7,29.9z"/>
		
			<linearGradient id="SVGID_4_" gradientUnits="userSpaceOnUse" x1="9.075" y1="46.495" x2="31.375" y2="46.495" gradientTransform="matrix(1 0 0 -1 0 58)">
			<stop  offset="0" style="stop-color:#FF6500"/>
			<stop  offset="1" style="stop-color:#EB2B02"/>
		</linearGradient>
		<path class="st2" d="M20.2,22.7c2.2,0,4.4-0.7,6.2-1.9c1.8-1.2,3.3-3,4.1-5c0.8-2,1.1-4.3,0.6-6.4c-0.4-2.2-1.5-4.1-3.1-5.7
			c-1.6-1.6-3.5-2.6-5.7-3S18,0.4,16,1.2c-2,0.8-3.8,2.3-5,4.1c-1.2,1.8-1.9,4-1.9,6.2c0,3,1.2,5.8,3.3,7.9
			C14.4,21.5,17.3,22.7,20.2,22.7z M20.2,5.2c1.2,0,2.5,0.4,3.5,1.1c1,0.7,1.8,1.7,2.3,2.8c0.5,1.2,0.6,2.4,0.4,3.6
			c-0.2,1.2-0.8,2.3-1.7,3.2c-0.9,0.9-2,1.5-3.2,1.7c-1.2,0.2-2.5,0.1-3.6-0.4S15.7,16,15,15c-0.7-1-1.1-2.3-1.1-3.5
			c0-1.7,0.7-3.3,1.9-4.5C17,5.9,18.6,5.2,20.2,5.2z"/>
		
			<linearGradient id="SVGID_5_" gradientUnits="userSpaceOnUse" x1="0.3549" y1="20.2795" x2="34.9949" y2="20.2795" gradientTransform="matrix(1 0 0 -1 0 58)">
			<stop  offset="0" style="stop-color:#FF6500"/>
			<stop  offset="1" style="stop-color:#EB2B02"/>
		</linearGradient>
		<path class="st3" d="M34.3,32.9c0.2-0.2,0.4-0.5,0.5-0.8c0.1-0.3,0.2-0.6,0.2-0.9c0-0.3-0.1-0.6-0.2-0.9c-0.1-0.3-0.3-0.6-0.5-0.8
			c-1.8-1.8-4-3.3-6.4-4.3c-2.4-1-5-1.5-7.6-1.5c-5.3,0-10.3,2.1-14,5.8c-3.7,3.7-5.8,8.8-5.8,14v5.8c0,0.6,0.3,1.3,0.7,1.7
			c0.5,0.5,1.1,0.7,1.7,0.7h9.7c0.6,0,1.3-0.3,1.7-0.7c0.5-0.5,0.7-1.1,0.7-1.7c0-0.6-0.3-1.3-0.7-1.7c-0.5-0.5-1.1-0.7-1.7-0.7H5.2
			v-3.4c0-4,1.6-7.8,4.4-10.6s6.6-4.4,10.6-4.4c2,0,3.9,0.4,5.8,1.1s3.5,1.9,4.9,3.3c0.5,0.4,1.1,0.7,1.7,0.7
			C33.2,33.6,33.8,33.4,34.3,32.9z"/>
	</g>
</g>
</svg>
