<?xml version="1.0" encoding="utf-8"?>
<!-- Generator: Adobe Illustrator 23.0.1, SVG Export Plug-In . SVG Version: 6.00 Build 0)  -->
<svg version="1.1" id="Layer_1" xmlns="http://www.w3.org/2000/svg" xmlns:xlink="http://www.w3.org/1999/xlink" x="0px" y="0px"
	 viewBox="0 0 56 56" style="enable-background:new 0 0 56 56;" xml:space="preserve">
<style type="text/css">
	.st0{clip-path:url(#SVGID_2_);}
	.st1{fill:url(#SVGID_3_);}
	.st2{fill:url(#SVGID_4_);}
</style>
<g>
	<defs>
		<rect id="SVGID_1_" x="0" y="0.2" width="56" height="55.7"/>
	</defs>
	<clipPath id="SVGID_2_">
		<use xlink:href="#SVGID_1_"  style="overflow:visible;"/>
	</clipPath>
	<g class="st0">
		
			<linearGradient id="SVGID_3_" gradientUnits="userSpaceOnUse" x1="2.003098e-02" y1="29.9999" x2="55.98" y2="29.9999" gradientTransform="matrix(1 0 0 -1 0 58)">
			<stop  offset="0" style="stop-color:#4A6EEC"/>
			<stop  offset="1" style="stop-color:#1B51C4"/>
		</linearGradient>
		<path class="st1" d="M49.6,0.2H6.4C4.7,0.2,3.1,0.8,1.9,2C0.7,3.2,0,4.8,0,6.5V18c0,8.1,2.5,16,7.1,22.7
			c4.6,6.7,11.1,11.8,18.6,14.8c1.5,0.6,3.1,0.6,4.6,0c7.5-2.9,14-8.1,18.6-14.8C53.5,34,55.9,26.1,56,18V6.5c0-1.7-0.7-3.3-1.9-4.5
			C52.9,0.8,51.3,0.2,49.6,0.2z M51.2,18c0,7.1-2.2,14.1-6.2,19.9s-9.7,10.4-16.4,13c-0.3,0.1-0.7,0.1-1.1,0
			c-6.6-2.6-12.3-7.1-16.4-13c-4-5.9-6.2-12.8-6.2-19.9V6.5c0-0.4,0.2-0.8,0.4-1.1C5.6,5.2,6,5,6.4,5h43.3c0.2,0,0.4,0,0.6,0.1
			c0.2,0.1,0.4,0.2,0.5,0.3C50.9,5.6,51,5.8,51,5.9c0.1,0.2,0.1,0.4,0.1,0.6L51.2,18z"/>
		
			<linearGradient id="SVGID_4_" gradientUnits="userSpaceOnUse" x1="19.6808" y1="32.8042" x2="36.3191" y2="32.8042" gradientTransform="matrix(1 0 0 -1 0 58)">
			<stop  offset="0" style="stop-color:#4A6EEC"/>
			<stop  offset="1" style="stop-color:#1B51C4"/>
		</linearGradient>
		<path class="st2" d="M28,12c-2,0-3.9,0.7-5.4,2s-2.5,3.1-2.8,5.1c-0.3,2,0.1,4,1.2,5.7c1.1,1.7,2.7,2.9,4.6,3.5V36
			c0,0.6,0.3,1.3,0.7,1.7c0.5,0.5,1.1,0.7,1.7,0.7c0.6,0,1.3-0.3,1.7-0.7c0.5-0.5,0.7-1.1,0.7-1.7v-7.8c1.9-0.6,3.5-1.8,4.6-3.5
			c1.1-1.7,1.5-3.7,1.2-5.7c-0.3-2-1.3-3.8-2.8-5.1C31.9,12.7,30,12,28,12z M28,23.8c-0.7,0-1.4-0.2-1.9-0.6c-0.6-0.4-1-0.9-1.3-1.6
			c-0.3-0.6-0.3-1.3-0.2-2c0.1-0.7,0.5-1.3,1-1.8c0.5-0.5,1.1-0.8,1.8-1c0.7-0.1,1.4-0.1,2,0.2c0.6,0.3,1.2,0.7,1.6,1.3
			c0.4,0.6,0.6,1.2,0.6,1.9c0,0.9-0.4,1.8-1,2.5C29.8,23.4,28.9,23.8,28,23.8z"/>
	</g>
</g>
</svg>
