<?xml version="1.0" encoding="utf-8"?>
<!-- Generator: Adobe Illustrator 23.0.1, SVG Export Plug-In . SVG Version: 6.00 Build 0)  -->
<svg version="1.1" id="Layer_1" xmlns="http://www.w3.org/2000/svg" xmlns:xlink="http://www.w3.org/1999/xlink" x="0px" y="0px"
	 viewBox="0 0 56 56" style="enable-background:new 0 0 56 56;" xml:space="preserve">
<style type="text/css">
	.st0{clip-path:url(#SVGID_2_);}
	.st1{fill:url(#SVGID_3_);}
	.st2{fill:url(#SVGID_4_);}
	.st3{fill:url(#SVGID_5_);}
	.st4{fill:url(#SVGID_6_);}
</style>
<g>
	<defs>
		<rect id="SVGID_1_" y="2" width="56" height="52"/>
	</defs>
	<clipPath id="SVGID_2_">
		<use xlink:href="#SVGID_1_"  style="overflow:visible;"/>
	</clipPath>
	<g class="st0">
		
			<linearGradient id="SVGID_3_" gradientUnits="userSpaceOnUse" x1="8.9378" y1="42.8886" x2="31.2141" y2="42.8886" gradientTransform="matrix(1 0 0 -1 0 56)">
			<stop  offset="1.000000e-02" style="stop-color:#5C8E00"/>
			<stop  offset="1" style="stop-color:#116D31"/>
		</linearGradient>
		<path class="st1" d="M20.1,24.2c2.2,0,4.4-0.7,6.2-1.9c1.8-1.2,3.3-3,4.1-5c0.8-2,1.1-4.3,0.6-6.4c-0.4-2.2-1.5-4.1-3-5.7
			c-1.6-1.6-3.5-2.6-5.7-3S17.8,2,15.8,2.8s-3.8,2.3-5,4.1c-1.2,1.8-1.9,4-1.9,6.2c0,3,1.2,5.8,3.3,7.9S17.1,24.2,20.1,24.2z
			 M20.1,6.4c1.3,0,2.6,0.4,3.7,1.1c1.1,0.7,2,1.8,2.5,3c0.5,1.2,0.6,2.6,0.4,3.9c-0.3,1.3-0.9,2.5-1.8,3.4
			c-0.9,0.9-2.1,1.6-3.4,1.8c-1.3,0.3-2.7,0.1-3.9-0.4c-1.2-0.5-2.3-1.4-3-2.5s-1.1-2.4-1.1-3.7c0-1.8,0.7-3.5,2-4.8
			C16.6,7.1,18.3,6.4,20.1,6.4z"/>
		
			<linearGradient id="SVGID_4_" gradientUnits="userSpaceOnUse" x1="0" y1="15.0971" x2="40.1247" y2="15.0971" gradientTransform="matrix(1 0 0 -1 0 56)">
			<stop  offset="1.000000e-02" style="stop-color:#5C8E00"/>
			<stop  offset="1" style="stop-color:#116D31"/>
		</linearGradient>
		<path class="st2" d="M20.1,27.8c-5.3,0-10.4,2.1-14.2,5.9C2.1,37.4,0,42.5,0,47.9v4c0,0.6,0.2,1.1,0.6,1.6c0.4,0.4,1,0.6,1.6,0.6
			h35.7c0.6,0,1.1-0.2,1.6-0.6c0.4-0.4,0.6-1,0.6-1.6v-4c0-5.3-2.1-10.4-5.9-14.2S25.4,27.8,20.1,27.8z M35.7,49.6H4.4v-1.8
			c-0.1-2.1,0.3-4.2,1.1-6.1c0.8-1.9,1.9-3.7,3.4-5.2c1.5-1.5,3.2-2.7,5.1-3.5c1.9-0.8,4-1.2,6.1-1.2s4.2,0.4,6.1,1.2
			c1.9,0.8,3.7,2,5.1,3.5c1.5,1.5,2.6,3.3,3.4,5.2c0.8,1.9,1.1,4,1.1,6.1V49.6z"/>
		
			<linearGradient id="SVGID_5_" gradientUnits="userSpaceOnUse" x1="33.7418" y1="42.8842" x2="47.0713" y2="42.8842" gradientTransform="matrix(1 0 0 -1 0 56)">
			<stop  offset="1.000000e-02" style="stop-color:#5C8E00"/>
			<stop  offset="1" style="stop-color:#116D31"/>
		</linearGradient>
		<path class="st3" d="M35.9,19.8c-0.6,0-1.1,0.2-1.6,0.6c-0.4,0.4-0.6,1-0.6,1.6s0.2,1.1,0.6,1.6c0.4,0.4,1,0.6,1.6,0.6
			c2.9-0.1,5.6-1.3,7.7-3.4c2-2.1,3.2-4.9,3.2-7.8c0-2.9-1.1-5.7-3.2-7.8c-2-2.1-4.8-3.3-7.7-3.4c-0.6,0-1.1,0.2-1.6,0.6
			c-0.4,0.4-0.6,1-0.6,1.6c0,0.6,0.2,1.1,0.6,1.6c0.4,0.4,1,0.6,1.6,0.6c1.7,0.1,3.4,0.8,4.6,2.1c1.2,1.3,1.9,2.9,1.9,4.7
			s-0.7,3.4-1.9,4.7C39.3,19,37.7,19.8,35.9,19.8z"/>
		
			<linearGradient id="SVGID_6_" gradientUnits="userSpaceOnUse" x1="40.0974" y1="14.7498" x2="56" y2="14.7498" gradientTransform="matrix(1 0 0 -1 0 56)">
			<stop  offset="1.000000e-02" style="stop-color:#5C8E00"/>
			<stop  offset="1" style="stop-color:#116D31"/>
		</linearGradient>
		<path class="st4" d="M43.1,28.7c-0.3-0.1-0.6-0.2-0.9-0.2c-0.3,0-0.6,0.1-0.9,0.2c-0.3,0.1-0.5,0.3-0.7,0.5
			c-0.2,0.2-0.4,0.5-0.5,0.7C40,30.2,40,30.5,40,30.8c0,0.3,0.1,0.6,0.2,0.9c0.1,0.3,0.3,0.5,0.5,0.7c0.2,0.2,0.5,0.3,0.8,0.4
			c3,1.1,5.5,3.1,7.3,5.7c1.8,2.6,2.8,5.7,2.8,8.9v2.2h-3.8c-0.6,0-1.1,0.2-1.6,0.6c-0.4,0.4-0.6,1-0.6,1.6s0.2,1.1,0.6,1.6
			c0.4,0.4,1,0.6,1.6,0.6h6c0.3,0,0.6-0.1,0.8-0.2c0.3-0.1,0.5-0.3,0.7-0.5c0.2-0.2,0.4-0.4,0.5-0.7c0.1-0.3,0.2-0.6,0.2-0.8v-4.4
			c0-4.1-1.3-8-3.6-11.3C50.1,32.7,46.9,30.1,43.1,28.7z"/>
	</g>
</g>
</svg>
