<?xml version="1.0" encoding="utf-8"?>
<!-- Generator: Adobe Illustrator 23.0.1, SVG Export Plug-In . SVG Version: 6.00 Build 0)  -->
<svg version="1.1" id="Layer_1" xmlns="http://www.w3.org/2000/svg" xmlns:xlink="http://www.w3.org/1999/xlink" x="0px" y="0px"
	 viewBox="0 0 56 56" style="enable-background:new 0 0 56 56;" xml:space="preserve">
<style type="text/css">
	.st0{clip-path:url(#SVGID_2_);}
	.st1{fill:url(#SVGID_3_);}
	.st2{fill:url(#SVGID_4_);}
	.st3{fill:url(#SVGID_5_);}
</style>
<g>
	<defs>
		<rect id="SVGID_1_" x="4" y="0.2" width="48.1" height="55.6"/>
	</defs>
	<clipPath id="SVGID_2_">
		<use xlink:href="#SVGID_1_"  style="overflow:visible;"/>
	</clipPath>
	<g class="st0">
		
			<linearGradient id="SVGID_3_" gradientUnits="userSpaceOnUse" x1="35.205" y1="52.774" x2="44.735" y2="52.774" gradientTransform="matrix(1 0 0 -1 0 58)">
			<stop  offset="0" style="stop-color:#F8539B"/>
			<stop  offset="1" style="stop-color:#D63170"/>
		</linearGradient>
		<path class="st1" d="M37.6,10.3c0.3,0,0.7-0.1,1-0.2c0.3-0.1,0.6-0.3,0.8-0.6l4.7-5.3c0.2-0.2,0.4-0.5,0.5-0.8
			c0.1-0.3,0.2-0.6,0.2-1c0-0.3-0.1-0.6-0.2-0.9C44.4,1.2,44.2,1,44,0.8c-0.2-0.2-0.5-0.4-0.8-0.5c-0.3-0.1-0.6-0.1-1-0.1
			c-0.3,0-0.6,0.1-0.9,0.3C41,0.6,40.7,0.8,40.5,1l-4.7,5.3c-0.3,0.4-0.5,0.8-0.6,1.2c-0.1,0.5,0,0.9,0.2,1.3c0.2,0.4,0.5,0.8,0.9,1
			C36.7,10.1,37.2,10.3,37.6,10.3L37.6,10.3z"/>
		
			<linearGradient id="SVGID_4_" gradientUnits="userSpaceOnUse" x1="22.8133" y1="52.4751" x2="32.8975" y2="52.4751" gradientTransform="matrix(1 0 0 -1 0 58)">
			<stop  offset="0" style="stop-color:#F8539B"/>
			<stop  offset="1" style="stop-color:#D63170"/>
		</linearGradient>
		<path class="st2" d="M28.9,9.7c0.4,0.4,1,0.6,1.6,0.6c0.5,0,1-0.1,1.4-0.4c0.4-0.3,0.7-0.7,0.9-1.1c0.2-0.5,0.2-1,0.1-1.4
			c-0.1-0.5-0.4-0.9-0.7-1.2l-5.2-4.7c-0.5-0.4-1.1-0.7-1.7-0.6c-0.6,0-1.2,0.3-1.7,0.8C23,2,22.8,2.7,22.8,3.3
			c0,0.6,0.3,1.2,0.8,1.7L28.9,9.7z"/>
		
			<linearGradient id="SVGID_5_" gradientUnits="userSpaceOnUse" x1="3.965" y1="28.0686" x2="52.035" y2="28.0686" gradientTransform="matrix(1 0 0 -1 0 58)">
			<stop  offset="0" style="stop-color:#F8539B"/>
			<stop  offset="1" style="stop-color:#D63170"/>
		</linearGradient>
		<path class="st3" d="M51.2,37l-3.7-3.2l2.3-14.9c0.2-1.2,0.1-2.4-0.3-3.5c-0.4-1.1-1.1-2-2.1-2.6c-1-0.6-2.1-0.9-3.3-0.9
			c-3.3,0-4.9,2.1-6.3,4.2l-3.2,3.9L15.3,5.4c-1.5-1-3.3-1.5-5.1-1.2C8.5,4.4,6.9,5.3,5.8,6.7c-1.1,1.4-1.7,3.2-1.6,5
			c0.1,1.8,0.9,3.5,2.2,4.7l12.6,11c-0.6,0.8-1.2,1.6-1.9,2.4c-3.6,4.6-9,11.5-2.5,17.6c5.8,5.5,11.1,8.3,15.6,8.3
			c0.6,0,1.3-0.3,1.7-0.7c0.5-0.5,0.7-1.1,0.7-1.7s-0.3-1.3-0.7-1.7c-0.5-0.5-1.1-0.7-1.7-0.7c-1.8,0-5.9-0.9-12.3-7
			c-2.9-2.8-1.2-5.6,3-11.1c1.2-1.5,2.3-3,3.3-4.7c0.3-0.5,0.4-1,0.3-1.6c-0.1-0.5-0.4-1-0.8-1.4L9.5,12.7c-0.4-0.4-0.7-0.9-0.8-1.4
			c-0.1-0.6,0.1-1.1,0.4-1.6c0.2-0.3,0.4-0.5,0.7-0.7c0.3-0.2,0.6-0.3,0.9-0.3c0.3-0.1,0.6,0,0.9,0c0.3,0.1,0.6,0.2,0.8,0.4
			l21.2,15.9c0.5,0.4,1.1,0.5,1.7,0.5c0.6-0.1,1.2-0.4,1.6-0.8l4.8-5.6l0.1-0.2c1.5-2.2,1.7-2.2,2.4-2.2c0.6,0,0.7,0.1,0.8,0.5
			c0.1,0.3,0.1,0.6,0,0.9l-2.5,16.2c-0.1,0.4,0,0.8,0.1,1.2c0.1,0.4,0.4,0.7,0.7,1l4.7,4.1c0.2,0.2,0.5,0.4,0.8,0.5
			c0.3,0.1,0.6,0.2,1,0.1c0.3,0,0.6-0.1,0.9-0.2c0.3-0.1,0.6-0.3,0.8-0.6c0.2-0.2,0.4-0.5,0.5-0.8c0.1-0.3,0.1-0.6,0.1-1
			c0-0.3-0.1-0.6-0.3-0.9C51.6,37.3,51.4,37.1,51.2,37L51.2,37z"/>
	</g>
</g>
</svg>
