<?xml version="1.0" encoding="utf-8"?>
<!-- Generator: Adobe Illustrator 23.0.1, SVG Export Plug-In . SVG Version: 6.00 Build 0)  -->
<svg version="1.1" id="Layer_1" xmlns="http://www.w3.org/2000/svg" xmlns:xlink="http://www.w3.org/1999/xlink" x="0px" y="0px"
	 viewBox="0 0 564 800" style="enable-background:new 0 0 564 800;" xml:space="preserve">
<style type="text/css">
	.st0{fill:#E06448;}
</style>
<path class="st0" d="M227.9,800c-3.7-5.6-62.7-96.4-77.1-217.6c-46.9-13.2-85.7-39.7-112.6-77.8c-42.4-59.8-49.8-139-20.9-223.1
	C71.7,123.7,239.8,0,400.2,0C467.9,0,524.5,20.6,564,59.7l-58.3,59.5c-23.7-23.4-60.2-35.7-105.6-35.7
	c-125.1,0-261.6,101.1-304.3,225.4c-19.9,57.8-16.3,110.2,10,147.3c11,15.5,25.7,27.8,43.5,36.5c3.2-35.5,11.2-72.2,26.1-109.1
	c23.3-57.9,58.9-107.2,103.1-142.6c40-32,86.5-52,131.3-56.4c57.9-5.7,108.3,15.3,134.9,56.2c49.3,75.8,0.8,199.8-110.4,282.4
	c-75,55.7-156.6,66.8-198.2,68.5c15.6,92.5,60.2,161,60.9,162.1L227.8,800H227.9z M428.5,267.1c-3.4,0-7,0.2-10.7,0.5
	c-51.1,5-125.1,46.6-165.5,147.1c-12.6,31.4-18.9,63-20.9,93.5c31.4-1.1,95.2-9.1,153.5-52.3c83.8-62.2,109-140.6,90.2-169.5
	C467.2,274,450.1,267.1,428.5,267.1z"/>
</svg>
