<?xml version="1.0" encoding="utf-8"?>
<!-- Generator: Adobe Illustrator 23.0.1, SVG Export Plug-In . SVG Version: 6.00 Build 0)  -->
<svg version="1.1" id="Layer_1" xmlns="http://www.w3.org/2000/svg" xmlns:xlink="http://www.w3.org/1999/xlink" x="0px" y="0px"
	 viewBox="0 0 50 50" style="enable-background:new 0 0 50 50;" xml:space="preserve">
<style type="text/css">
	.st0{fill:#E5609A;}
</style>
<g>
	<path class="st0" d="M17.4,48c-1.2,0-2.4-0.5-3.3-1.5c-1.2-1.4-1.4-3.4-0.4-5.1c1.8-3,3.8-5.7,5.9-8.4c-1,0.8-2.1,1.5-3.3,2.2
		c-2.9,1.8-6.1,1.3-7.9-1.1c-0.5-0.6-1.3-2.1-1-4.1c-0.7,0.4-1.5,0.6-2.4,0.6c-1.3,0-2.6-0.4-3.5-1.4C0.8,28.6,0,27.4,0,25.4
		c0-0.1,0-0.1,0-0.2C0.1,22.5,6.6,9.6,11.8,4.7L16,9.1c2.5-2.2,5.1-4.2,7.9-6c0,0,0,0,0.1,0c0.8-0.5,3-1.6,5.4-0.7
		c1.4,0.5,2.5,1.6,3,3.1v0.1c0.4,1.3,0.2,2.5,0,3.2C35,7,38,7.1,40,9.2c1,1,1.6,2.4,1.7,4c0.1,1,0,1.9-0.2,2.8
		c0.7-0.5,2.1-1.3,3.9-1.1h0.1c2.6,0.4,4.5,2.7,4.5,5.4c0,1.6-0.7,2.8-1.1,3.5c0,0,0,0,0,0.1c-2.1,3.5-4.5,6.8-7.3,9.9L38.7,31
		c-0.3,0.3-0.6,0.6-0.8,1c-1,1.2-2.1,2.4-3.2,3.6c-4,4.4-9,9.3-15.6,12C18.5,47.9,17.9,48,17.4,48z M8.5,26.4L8.5,26.4L8.5,26.4z"/>
</g>
</svg>
